# xmcd CD database file generated by OrangeCD 5.2
#
# Track frame offsets:
#	150
#	11378
#	36135
#	59462
#	80034
#	100184
#	120302
#	137147
#	156597
#	171404
#	180541
#	201919
#	219926
#	237951
#
# Disc length: 3390 seconds
#
# Revision: 0
# Processed by: cddbd v1.5.1PL0 Copyright (c) Steve Scherf et al.
# Submitted via: OrangeCD 5.2
#
DISCID=bf0d3c0e
DTITLE=Various Artist - Midnight Sax Melodies
DYEAR=1900
DGENRE=Blues
TTITLE0=Fausto Papetti - Smoke Gets In Your Eyes
TTITLE1=Grover Washington - In The Name Of Love
TTITLE2=Sam Riney - Everytime We Kiss
TTITLE3=3rd Force - Ready For Love
TTITLE4=Thomas Wolter - Rumbaba
TTITLE5=Tim Timmermans - Pride
TTITLE6=Dancing Fantasy - Carioca Groove
TTITLE7=Keiko Matsui and Steve Tavaglione - Frontier
TTITLE8=The Gino Marinello Orchestra - Words
TTITLE9=Pierre Gidon - Take Four
TTITLE10=Ronnie Aspery - Afrique
TTITLE11=Gil Ventura - Une Belle Histoire
TTITLE12=Herman Schoonderwalt - La Solitudine
TTITLE13=The Starshine Orchestra - Piano In The Dark
EXTD=
EXTT0=
EXTT1=
EXTT2=
EXTT3=
EXTT4=
EXTT5=
EXTT6=
EXTT7=
EXTT8=
EXTT9=
EXTT10=
EXTT11=
EXTT12=
EXTT13=
PLAYORDER=
